<?xml version="1.0" encoding="UTF-8"?>
<svg version="1.1" xmlns="http://www.w3.org/2000/svg" width="512" height="512">
<path d="M0 0 C4.6529952 3.98046144 7.81673225 7.24524245 10 13 C10.69005127 12.78765213 11.38010254 12.57530426 12.09106445 12.35652161 C20.53134545 9.97871106 28.46376445 9.57310939 37.1875 9.63671875 C38.62133788 9.6372393 40.05517648 9.6367141 41.48901367 9.63520813 C44.47423144 9.63529714 47.45917515 9.64557811 50.44433594 9.66381836 C54.23639892 9.68650279 58.02806297 9.68704168 61.82017517 9.68030071 C64.77505934 9.67693059 67.72985553 9.68364749 70.6847229 9.69342995 C72.08150775 9.69723002 73.47830246 9.69845222 74.87509155 9.6968441 C83.45491439 9.69519168 91.58626734 10.28219625 100 12 C100.58213257 11.17145508 100.58213257 11.17145508 101.17602539 10.32617188 C108.50068182 0.01825602 118.81171744 -7.52212765 131.53515625 -9.75390625 C148.51643049 -11.44934251 164.81435266 -7.66278376 178.3125 3.125 C190.30008046 14.5969856 196.79524218 29.63709808 197.27462196 46.11140633 C197.35330013 50.16008984 197.38663715 54.20850749 197.4140625 58.2578125 C197.43280185 60.01472861 197.45237726 61.77163598 197.4727478 63.52853394 C197.52378298 68.12165137 197.56356066 72.7147979 197.60089111 77.30804443 C197.64111151 82.00751776 197.692121 86.70687308 197.7421875 91.40625 C197.83860736 100.60408343 197.92311929 109.80198393 198 119 C199.10085938 118.66911377 200.20171875 118.33822754 201.3359375 117.99731445 C204.63267324 117.099982 206.67242398 116.98499949 210 117.1875 C212.61765497 117.10343807 212.61765497 117.10343807 215 116 C217.22160937 112.98042482 218.70891058 109.88372547 220.30078125 106.4921875 C226.68136756 93.37898254 238.63744224 84.25661893 252 79 C265.04552944 75.25409393 278.42334532 75.53880572 291.8815918 75.60888672 C295.55880746 75.62498384 299.23492675 75.60895873 302.91210938 75.58984375 C324.58534889 75.56895644 343.4174582 77.08628898 359.9362793 92.66333008 C364.96210734 97.68744779 369.50606125 103.61110817 371.81640625 110.3984375 C372.63788327 112.78115096 373.19826757 114.22130763 375 116 C378.4239506 116.88448258 381.74562368 117.21017687 385.265625 117.53515625 C397.96249633 119.11562454 408.38028677 127.11537918 416.40234375 136.73046875 C423.14416531 146.30748178 426.30275281 155.89175002 426.29052734 167.44848633 C426.30060318 168.83043938 426.30060318 168.83043938 426.31088257 170.24031067 C426.32980272 173.27093982 426.33378375 176.3013468 426.3359375 179.33203125 C426.34236959 181.45041493 426.34909826 183.56879773 426.35610962 185.68717957 C426.36806744 190.12293557 426.37179198 194.55861378 426.37060547 198.99438477 C426.37040237 204.66007492 426.39770205 210.32526297 426.43214989 215.99083424 C426.45445847 220.36535403 426.45844179 224.73975373 426.45738602 229.11432457 C426.4597361 231.2021832 426.46852598 233.29004544 426.48405075 235.37784767 C426.50379071 238.30669294 426.49784124 241.23446511 426.48583984 244.16333008 C426.49707886 245.0140509 426.50831787 245.86477173 426.51989746 246.74127197 C426.41941 256.46050867 422.78366209 264.05173424 416.14453125 271.0234375 C408.60750572 277.97013134 400.70805997 280.36633994 390.5625 280.125 C389.83095703 280.11597656 389.09941406 280.10695313 388.34570312 280.09765625 C386.56365702 280.07436153 384.78178241 280.0385019 383 280 C383.01571045 280.8878418 383.0314209 281.77568359 383.04760742 282.69042969 C383.09881686 285.99289821 383.13638856 289.2949432 383.16479492 292.59765625 C383.17985681 294.02545846 383.20031062 295.4532146 383.22631836 296.88085938 C383.26281842 298.93631373 383.27975166 300.99115505 383.29296875 303.046875 C383.3086792 304.28276367 383.32438965 305.51865234 383.34057617 306.79199219 C382.9741135 310.24383414 382.46077582 311.60005073 380 314 C379.01 314.33 378.02 314.66 377 315 C376.72368479 317.5829465 376.47828726 320.16274443 376.25 322.75 C376.16878906 323.47960937 376.08757812 324.20921875 376.00390625 324.9609375 C375.75934027 327.3973639 375.75934027 327.3973639 376 331 C377.90629501 333.19818321 377.90629501 333.19818321 380 335 C380.390625 337.578125 380.390625 337.578125 380.25 340.25 C380.21390625 341.14203125 380.1778125 342.0340625 380.140625 342.953125 C380.09421875 343.62859375 380.0478125 344.3040625 380 345 C381.01707031 345.29390625 381.01707031 345.29390625 382.0546875 345.59375 C392.83908996 349.05909816 400.45720092 354.64297465 405.88671875 364.69140625 C409.67826611 372.55387813 410.95487131 380.43343706 408.72265625 388.93359375 C406.45174035 395.42718569 401.89194549 399.45094827 396.28619385 403.12246704 C393.02791331 404.37312589 389.86210117 404.29490946 386.42089844 404.29052734 C385.6626326 404.29724457 384.90436676 404.30396179 384.12312317 404.31088257 C381.61847357 404.3298657 379.11409205 404.33378729 376.609375 404.3359375 C374.86305634 404.34236663 373.11673877 404.34909507 371.37042236 404.35610962 C367.70867416 404.36808417 364.0470203 404.3717904 360.38525391 404.37060547 C355.70683974 404.37040259 351.02903517 404.39767118 346.35076523 404.43214989 C342.74236305 404.45445814 339.13410646 404.45844177 335.5256424 404.45738602 C333.80175939 404.45973736 332.07787209 404.46853448 330.35405731 404.48405075 C327.9345061 404.50378518 325.51625464 404.49784387 323.09667969 404.48583984 C322.39301773 404.49707886 321.68935577 404.50831787 320.96437073 404.51989746 C315.55650981 404.4521798 311.4770657 402.89300232 307 400 C306.00419922 398.90558594 306.00419922 398.90558594 304.98828125 397.7890625 C302.02884123 395.12614791 298.97975048 395.31839275 295.1875 395.375 C294.46844482 395.37902832 293.74938965 395.38305664 293.00854492 395.38720703 C288.77329599 395.54848547 285.97793505 396.00500556 282.8125 398.875 C282.36519531 399.40867187 281.91789062 399.94234375 281.45703125 400.4921875 C278.62344574 403.42453068 275.47098692 403.96410159 271.49137878 404.26742554 C270.12740429 404.28528062 268.76326013 404.29229659 267.39916992 404.29052734 C266.65051163 404.29724457 265.90185333 404.30396179 265.13050842 404.31088257 C262.66376037 404.32982768 260.19728496 404.33378512 257.73046875 404.3359375 C256.00799957 404.3423684 254.28553148 404.34909698 252.56306458 404.35610962 C248.95437082 404.36807405 245.34577273 404.37179136 241.73706055 404.37060547 C237.12705295 404.37040245 232.51766301 404.39769022 227.90780163 404.43214989 C224.35001341 404.45445764 220.79237285 404.45844181 217.23452187 404.45738602 C215.53575833 404.45973669 213.83699039 404.46853003 212.13829613 404.48405075 C194.36681635 404.63121024 194.36681635 404.63121024 186.9765625 398.25390625 C186.53054688 397.69574219 186.08453125 397.13757813 185.625 396.5625 C185.16351563 396.00691406 184.70203125 395.45132812 184.2265625 394.87890625 C179.99280709 388.39344015 180.32967703 381.49617277 181 374 C183.56626758 364.09209063 189.67826004 354.84243257 198.5 349.48046875 C202.65476742 347.33507545 206.36799861 345.77474756 211 345 C210.79503906 344.21496094 210.59007812 343.42992187 210.37890625 342.62109375 C210.10949219 341.57050781 209.84007812 340.51992188 209.5625 339.4375 C209.16224609 337.88869141 209.16224609 337.88869141 208.75390625 336.30859375 C207.14173268 329.23340717 206.86393982 322.47193352 206.90234375 315.25390625 C206.90446617 313.7372361 206.90446617 313.7372361 206.90663147 312.18992615 C206.91220039 308.98075319 206.92474713 305.77165164 206.9375 302.5625 C206.94251902 300.37825622 206.94708122 298.19401134 206.95117188 296.00976562 C206.96215963 290.67315298 206.97886664 285.3365816 207 280 C205.47910767 280.02827881 205.47910767 280.02827881 203.92749023 280.05712891 C202.57536297 280.07238067 201.2232304 280.08716713 199.87109375 280.1015625 C199.20541382 280.11517822 198.53973389 280.12879395 197.85388184 280.14282227 C189.07289461 280.21274743 181.56891612 277.28365205 174.78125 271.76171875 C166.07726759 263.15317474 163.56175932 253.35006139 163.48828125 241.5 C163.47033005 240.42371338 163.45237885 239.34742676 163.43388367 238.23852539 C163.38001999 234.82572257 163.34596135 231.41305769 163.3125 228 C163.27930585 225.67576216 163.24481427 223.35154246 163.20898438 221.02734375 C163.12430739 215.35168627 163.05585681 209.67601039 163 204 C162.43406128 205.18190918 162.43406128 205.18190918 161.85668945 206.38769531 C155.45806246 219.50824412 147.31403439 230.79064374 135 239 C136.32344927 242.45931294 137.8412722 245.78291721 139.4621582 249.11230469 C151.62608319 274.26648173 154.34752518 303.33495073 145.31982422 330.00976562 C144.00426091 333.72754203 142.56099522 337.3790029 141 341 C141.9075 340.896875 142.815 340.79375 143.75 340.6875 C153.13533661 340.7633411 161.29153511 346.24190129 167.8046875 352.53515625 C176.04728045 361.78974015 178.49781181 371.143609 178.31640625 383.39453125 C177.77352242 389.58072597 175.59600974 393.04932143 171.75 397.75 C165.71312214 402.6892637 160.25255776 404.601849 152.5078125 404.51757812 C151.2963858 404.52809204 151.2963858 404.52809204 150.06048584 404.53881836 C147.41496465 404.55629299 144.77053034 404.5448137 142.125 404.53125 C140.27229611 404.53394795 138.4195936 404.5378329 136.56689453 404.54284668 C132.69354707 404.54872746 128.82056987 404.54022475 124.94726562 404.52148438 C119.99763513 404.49869565 115.04887239 404.51182637 110.09927368 404.53577423 C106.2763828 404.55027073 102.45369556 404.54560861 98.63079834 404.53526306 C96.80645646 404.53260641 94.98209572 404.53582794 93.15777588 404.54518127 C90.60208592 404.55541075 88.04777546 404.53975795 85.4921875 404.51757812 C84.74805603 404.52567505 84.00392456 404.53377197 83.23724365 404.54211426 C77.22315774 404.44606178 71.72891231 402.76581645 67.41300964 398.39154816 C64.41505265 395.43912562 59.15173624 396.48974987 55.1875 396.5 C54.20201172 396.47164063 53.21652344 396.44328125 52.20117188 396.4140625 C45.49244268 396.39604039 42.73931987 397.29610106 38 402 C33.72419955 404.27095575 29.58148849 404.29621002 24.84838867 404.29052734 C24.04120895 404.29724457 23.23402924 404.30396179 22.40238953 404.31088257 C19.74085285 404.32983938 17.07956869 404.33378571 14.41796875 404.3359375 C12.56097817 404.3423675 10.70398859 404.34909602 8.84700012 404.35610962 C4.95583753 404.36807692 1.06476368 404.37179105 -2.82641602 404.37060547 C-7.79960989 404.37040242 -12.77223143 404.39769254 -17.7452898 404.43214989 C-21.58101487 404.45444677 -25.41660287 404.45844214 -29.25238609 404.45738602 C-31.08512022 404.45973823 -32.91785834 404.46854031 -34.75052834 404.48405075 C-37.32082173 404.50376563 -39.88988968 404.49785148 -42.46020508 404.48583984 C-43.20904968 404.49707886 -43.95789429 404.50831787 -44.72943115 404.51989746 C-51.21486466 404.44332952 -56.32423177 402.30283886 -61.2421875 398.0703125 C-67.71372626 390.36020173 -68.79634905 383.98596432 -68 374 C-66.2349835 363.94385557 -61.15394877 354.94657658 -53.1953125 348.53125 C-46.24799095 343.68543141 -39.35709563 341.19133065 -31 340 C-31.39832031 339.04222656 -31.79664063 338.08445312 -32.20703125 337.09765625 C-43.123312 310.04082556 -42.88672253 281.00954554 -31.87207031 253.96289062 C-29.69266235 249.05739231 -26.92667491 244.49391798 -24 240 C-24.845625 239.23816406 -25.69125 238.47632813 -26.5625 237.69140625 C-42.28506947 223.43825749 -55.9633179 207.46731521 -57.15429688 185.10253906 C-57.32436138 178.39743494 -57.22711693 171.70256988 -57 165 C-58.5778125 164.83177734 -58.5778125 164.83177734 -60.1875 164.66015625 C-68.25214835 163.26371612 -74.44967339 158.34202945 -79.53125 152.0859375 C-85.74267509 143.26439229 -86.22639822 135.58477881 -86.3125 125 C-86.35600586 123.21722656 -86.35600586 123.21722656 -86.40039062 121.3984375 C-86.40876953 120.25632813 -86.41714844 119.11421875 -86.42578125 117.9375 C-86.44036377 116.89464844 -86.45494629 115.85179687 -86.4699707 114.77734375 C-85.88022218 111.29215975 -84.79311614 110.10548762 -82 108 C-81.01 108 -80.02 108 -79 108 C-79 102.39 -79 96.78 -79 91 C-80.65 90.67 -82.3 90.34 -84 90 C-86.16198307 86.75702539 -86.25807591 85.82622867 -86.29052734 82.07641602 C-86.30328705 81.07429581 -86.31604675 80.0721756 -86.32919312 79.03968811 C-86.33141876 77.9553801 -86.33364441 76.87107208 -86.3359375 75.75390625 C-86.3459227 74.07167213 -86.3459227 74.07167213 -86.35610962 72.35545349 C-86.36624702 69.97567383 -86.3709263 67.59586568 -86.37060547 65.21606445 C-86.37494558 61.60774387 -86.4111633 58.0006795 -86.44921875 54.39257812 C-86.45509357 52.07552499 -86.4590585 49.75846607 -86.4609375 47.44140625 C-86.47530853 46.37531631 -86.48967957 45.30922638 -86.50448608 44.21083069 C-86.40771525 28.00456655 -79.29881817 15.18749976 -68 4 C-49.40133641 -13.32063607 -20.4614505 -15.23280046 0 0 Z " fill="#020100" transform="translate(86,108)"/>
<path d="M0 0 C1.1859375 0.02255859 2.371875 0.04511719 3.59375 0.06835938 C6.48055497 0.12656109 9.36455431 0.20825702 12.25 0.3125 C12.279729 1.3166394 12.279729 1.3166394 12.31005859 2.34106445 C12.40655166 5.43603971 12.51571634 8.53045099 12.625 11.625 C12.6559375 12.67751953 12.686875 13.73003906 12.71875 14.81445312 C13.41817742 33.75727912 18.70859047 52.03820878 32.8984375 65.40625 C51.35828792 80.37038124 72.43881807 83.60751363 95.25 86.3125 C95.45753906 87.25609375 95.66507813 88.1996875 95.87890625 89.171875 C98.51813454 100.43838504 103.18080309 109.07542277 109.9375 118.5 C116.4886801 127.68046539 119.65065507 137.42442416 119.5 148.6875 C119.49250732 149.43281982 119.48501465 150.17813965 119.47729492 150.94604492 C119.20445044 164.96476368 114.61837862 177.04911472 106.25 188.3125 C105.54875 189.3025 104.8475 190.2925 104.125 191.3125 C97.03695267 199.44224119 87.43816041 205.08153246 77.25 208.3125 C76.50071732 208.55852463 75.75143463 208.80454926 74.97944641 209.05802917 C65.27972763 211.88594804 55.80193598 211.76764866 45.79296875 211.74609375 C43.9179109 211.75066653 42.04285472 211.75597532 40.1678009 211.76197815 C36.25364336 211.77086782 32.33969029 211.7685345 28.42553711 211.75854492 C23.44983891 211.7470734 18.47485239 211.76726033 13.49924755 211.79646206 C9.63063696 211.81495465 5.76219274 211.8145056 1.89354897 211.80882454 C0.0610282 211.80867285 -1.77150497 211.81458889 -3.60398293 211.82711601 C-24.11327611 211.94758117 -42.0021062 207.94523078 -57.0546875 193.10546875 C-68.48935166 181.25650516 -74.73257171 167.47642305 -75.125 150.875 C-74.79277626 137.32303976 -71.06891438 126.83849065 -63.3125 115.8203125 C-62.8801001 115.19817871 -62.4477002 114.57604492 -62.00219727 113.93505859 C-61.16683444 112.74522891 -60.31480879 111.56679514 -59.44116211 110.40478516 C-49.15264016 95.86607745 -50.10800141 79.6496999 -50.25 62.625 C-50.28895818 57.93309402 -50.29487278 53.24279786 -50.28125 48.55078125 C-50.30086792 47.50046219 -50.32048584 46.45014313 -50.34069824 45.36799622 C-50.29794163 33.02429728 -44.93854763 22.39536 -36.75 13.3125 C-25.84141857 3.47799428 -14.56009192 -0.5352975 0 0 Z " fill="#E4C8BB" transform="translate(118.75,133.6875)"/>
<path d="M0 0 C-0.02618408 0.63800537 -0.05236816 1.27601074 -0.0793457 1.93334961 C-0.8277436 23.03438101 1.11067561 41.58072758 16.125 57.75 C32.76848855 73.29518727 54.12266043 77.23569842 76 79 C76.11214844 79.87398437 76.11214844 79.87398437 76.2265625 80.765625 C78.00401603 91.84857055 83.71054023 100.9069248 89.84008789 110.10449219 C97.73893952 121.99015138 99.87628126 133.89182685 97.34765625 148.03515625 C94.21372757 163.08124847 86.74958969 174.95487347 74.18359375 184.03515625 C60.51879163 192.60522522 47.11670767 193.61246843 31.49609375 193.53125 C29.64152321 193.53395278 27.78695406 193.53784169 25.93238831 193.54284668 C22.0688003 193.54870334 18.20558524 193.54030276 14.34204102 193.52148438 C9.42446211 193.49868104 4.50775612 193.51185119 -0.40979099 193.53577423 C-4.23201411 193.55032295 -8.0540349 193.54558522 -11.87626457 193.53526306 C-13.68810063 193.5326216 -15.49995592 193.53577309 -17.31176949 193.54518127 C-36.22102709 193.62186926 -50.66345467 189.56688529 -64.74609375 176.34375 C-74.29703031 166.41210019 -79.91873587 152.52861731 -80.3125 138.8125 C-80.02786953 125.118612 -75.73676588 115.11281444 -67.90625 104.0390625 C-66.86984375 102.56566406 -66.86984375 102.56566406 -65.8125 101.0625 C-64.86310547 99.78052734 -64.86310547 99.78052734 -63.89453125 98.47265625 C-56.33052896 84.60791804 -57.47901763 70.12053958 -57.5847168 54.77441406 C-57.65584319 39.47174576 -57.49046677 26.33211888 -47.0703125 14.0625 C-32.85789562 -0.09628512 -19.03247703 -0.62377966 0 0 Z " fill="#E4C8BB" transform="translate(372,200)"/>
<path d="M0 0 C2.12590054 1.58100953 4.04631666 3.20472342 6 5 C9.19910076 3.50019064 12.01609027 1.6687869 14.9375 -0.3125 C26.00353949 -7.42744351 36.7362622 -10.18060288 49.6875 -10.25 C50.63044922 -10.270625 51.57339844 -10.29125 52.54492188 -10.3125 C65.46944693 -10.38356268 77.8096546 -5.56347602 87.3828125 3.25390625 C99.03310119 15.83284114 103.55920593 30.35394663 103.23828125 47.2109375 C101.9148282 68.25601058 89.49029293 86.39538523 75 101 C71.33134759 103.44576827 69.32799657 103.23607254 65 103 C64.34 102.67 63.68 102.34 63 102 C55.75173342 105.92739426 55.75173342 105.92739426 51.29296875 112.32421875 C51.26526393 113.80768578 51.26544968 115.29206271 51.29980469 116.77539062 C50.82997752 120.26160007 48.87356333 121.32560485 46.22412109 123.43847656 C42.08031979 126.34777987 37.65885819 128.70033054 33.1875 131.0625 C32.25357422 131.56587891 31.31964844 132.06925781 30.35742188 132.58789062 C28.48969246 133.58980238 26.61581612 134.58034329 24.73583984 135.55908203 C22.94752493 136.50095555 21.17565246 137.47491795 19.42431641 138.48388672 C13.54247063 141.74953531 8.72297519 143.19996051 2 142 C-1.36710713 140.89265443 -4.38964903 139.37645065 -7.5 137.6875 C-8.35658203 137.23963135 -9.21316406 136.7917627 -10.09570312 136.33032227 C-28.6423294 126.48894193 -45.2286825 114.83448904 -61 101 C-61.98419922 100.14535156 -61.98419922 100.14535156 -62.98828125 99.2734375 C-77.30528057 85.94735221 -87.80575568 66.87840332 -89.27734375 47.3125 C-89.6678473 32.06724144 -85.89116373 19.03140722 -76.75 6.6875 C-55.58808196 -13.99346535 -24.74567142 -16.04570071 0 0 Z " fill="#EB3F79" transform="translate(367,10)"/>
<path d="M0 0 C4.50175904 0.58437834 8.80266779 1.42317656 13.19995117 2.53540039 C22.377809 4.52409371 31.44457717 4.45368215 40.80078125 4.43359375 C42.69060959 4.43816919 44.58043627 4.44347874 46.47026062 4.44947815 C50.41115115 4.45835664 54.35183847 4.45604738 58.29272461 4.44604492 C63.29507085 4.43457351 68.29670918 4.45476606 73.29896259 4.48396206 C77.19681615 4.50248008 81.09450499 4.50200066 84.99239159 4.49632454 C86.83442361 4.49617316 88.67646816 4.50206198 90.51845741 4.51461601 C101.32634934 4.57791213 111.06222067 3.73739062 121.50309753 0.8575592 C124.54362905 0.11191765 126.90186196 -0.34275279 130 0 C132.62881398 2.91318088 134.2247903 6.51515562 136 10 C136.45761719 10.8765625 136.91523438 11.753125 137.38671875 12.65625 C140.75776006 19.54005809 142.57314509 26.4897299 144 34 C144.185625 34.94359375 144.37125 35.8871875 144.5625 36.859375 C147.25095774 56.15866095 142.53395062 74.11748863 134.82202148 91.68310547 C133 94 133 94 130.00415039 94.58007812 C128.79750732 94.56396484 127.59086426 94.54785156 126.34765625 94.53125 C125.36459755 94.53614441 125.36459755 94.53614441 124.36167908 94.5411377 C121.56883612 94.55421864 118.77761358 94.51025313 115.98510742 94.47021484 C103.40992125 94.34188139 92.97211867 96.65668958 83.0390625 104.91015625 C76.63788586 111.47074917 72.17410691 119.61274986 71.4375 128.8125 C71.10218978 132.89781022 71.10218978 132.89781022 70 134 C68.31391034 134.07205511 66.62499341 134.08386068 64.9375 134.0625 C64.01839844 134.05347656 63.09929687 134.04445313 62.15234375 134.03515625 C61.44207031 134.02355469 60.73179687 134.01195312 60 134 C59.85304688 133.11699219 59.70609375 132.23398437 59.5546875 131.32421875 C57.14152337 118.41240378 52.94466022 108.73492813 42 101 C34.61433754 96.59278178 28.54509974 94.93964127 19.94921875 94.68359375 C19.29041214 94.66281265 18.63160553 94.64203156 17.95283508 94.62062073 C15.86448815 94.55564511 13.77602388 94.49648425 11.6875 94.4375 C10.2649622 94.39426521 8.84243594 94.3506494 7.41992188 94.30664062 C3.94673703 94.20001784 0.47342274 94.09860652 -3 94 C-13.71967921 71.97326189 -19.19413382 46.5932104 -11.4140625 22.44140625 C-8.22844872 14.68857272 -4.65678663 6.98517994 0 0 Z " fill="#A24917" transform="translate(76,355)"/>
<path d="M0 0 C1.07378906 0.48210937 2.14757812 0.96421875 3.25390625 1.4609375 C4.6899968 2.09919997 6.12620079 2.73720722 7.5625 3.375 C8.26697266 3.69210937 8.97144531 4.00921875 9.69726562 4.3359375 C19.45816007 8.65412122 28.85760498 10.13189071 39.44116211 10.19287109 C40.24407684 10.20104858 41.04699158 10.20922607 41.87423706 10.21765137 C44.50859885 10.2422823 47.14290737 10.25896841 49.77734375 10.2734375 C50.68655642 10.27876118 51.59576908 10.28408485 52.53253365 10.28956985 C57.35021238 10.3162116 62.16786607 10.33561035 66.9855957 10.35009766 C70.93765635 10.36339225 74.88919525 10.3911752 78.84106445 10.43212891 C83.64849212 10.48192131 88.45545007 10.50627485 93.26312447 10.51332474 C95.07728789 10.51996177 96.89144399 10.53498138 98.70545769 10.55921555 C114.05644759 10.7525163 127.61056182 8.50183089 141.21484375 0.91796875 C143 0 143 0 145 0 C145.02187378 0.93066284 145.02187378 0.93066284 145.04418945 1.88012695 C145.11866588 4.69154633 145.21532564 7.50177749 145.3125 10.3125 C145.33505859 11.28896484 145.35761719 12.26542969 145.38085938 13.27148438 C145.41630859 14.20927734 145.45175781 15.14707031 145.48828125 16.11328125 C145.51446533 16.97735596 145.54064941 17.84143066 145.56762695 18.73168945 C146.08398579 21.44060528 146.84048951 22.33461758 149 24 C151.10332891 24.71447643 151.10332891 24.71447643 153 25 C153.12036664 30.77759884 152.8320582 36.27959989 152 42 C151.38511719 42.03996094 150.77023437 42.07992187 150.13671875 42.12109375 C147.49477094 42.46239801 145.41841336 42.86596603 143 44 C141.26949584 46.85670528 140.64895841 49.74941366 140 53 C139.67 53.99 139.34 54.98 139 56 C138.08822998 56.0093457 137.17645996 56.01869141 136.23706055 56.02832031 C132.80159806 56.07275848 129.36730433 56.13455592 125.93237305 56.20751953 C124.45559785 56.23546503 122.97868043 56.25680872 121.50170898 56.27099609 C107.66322641 56.41177415 96.35023111 58.5928355 86.28125 68.73046875 C80.425013 75.23261424 78.49567772 81.48614218 77 90 C73.7 90 70.4 90 67 90 C66.84144531 89.2265625 66.68289063 88.453125 66.51953125 87.65625 C63.81640831 75.58927024 58.91249626 67.98679105 48.453125 61.2109375 C39.4527173 56.76806109 30.78836257 56.46879151 20.9375 56.3125 C19.48499645 56.27926379 18.03252114 56.24476849 16.58007812 56.20898438 C13.05359261 56.12480821 9.52703038 56.05766349 6 56 C5.36618492 54.67083439 4.74351516 53.33635391 4.125 52 C3.77695312 51.2575 3.42890625 50.515 3.0703125 49.75 C0.42271112 42.94740374 -0.28711261 36.90683996 -0.1953125 29.6875 C-0.1924826 28.83317383 -0.18965271 27.97884766 -0.18673706 27.09863281 C-0.17563879 24.39893947 -0.15055427 21.69959123 -0.125 19 C-0.11495679 17.15755691 -0.1058333 15.31510857 -0.09765625 13.47265625 C-0.0757335 8.98164006 -0.04127646 4.49087832 0 0 Z " fill="#FDC300" transform="translate(309,397)"/>
<path d="M0 0 C2.12590054 1.58100953 4.04631666 3.20472342 6 5 C9.19910076 3.50019064 12.01609027 1.6687869 14.9375 -0.3125 C26.00353949 -7.42744351 36.7362622 -10.18060288 49.6875 -10.25 C50.63044922 -10.270625 51.57339844 -10.29125 52.54492188 -10.3125 C65.46944693 -10.38356268 77.8096546 -5.56347602 87.3828125 3.25390625 C99.03310119 15.83284114 103.55920593 30.35394663 103.23828125 47.2109375 C101.9148282 68.25601058 89.49029293 86.39538523 75 101 C71.26744552 103.48836965 69.41559065 103.54226552 65 103 C62.5 100.9375 62.5 100.9375 61 98 C61.1522822 92.10944761 63.02424377 89.20338319 67.125 85.25 C79.37785744 72.63618108 86.28876069 58.26665481 86.31689453 40.69238281 C86.22033447 34.07146191 85.5369571 28.72965014 82 23 C81.36384766 21.93265625 81.36384766 21.93265625 80.71484375 20.84375 C75.74180689 13.41882588 68.47223561 8.70611544 59.859375 6.47265625 C45.36181296 4.07620132 33.6194618 7.10203895 21.52734375 15.1171875 C19.10591583 16.92109516 16.9850444 18.84542021 14.8125 20.9375 C12.25130125 23.23788421 10.46844742 24.54499238 7 24.875 C2.59910515 24.45627408 0.27228479 21.98818546 -2.80078125 19.01171875 C-14.07078036 8.70257214 -26.54379479 5.57995138 -41.49609375 5.72265625 C-49.67922662 6.37037357 -57.22437025 10.17653894 -63 16 C-71.88360651 27.75719915 -73.43204922 38.61323587 -72 53 C-70.88952589 57.69449356 -69.2333375 61.73527574 -67 66 C-66.36578125 67.26457031 -66.36578125 67.26457031 -65.71875 68.5546875 C-52.9148925 91.8547305 -29.52322863 106.76556299 -6.77587891 119.03662109 C-5.16767117 119.90904173 -3.57317703 120.80662566 -1.98046875 121.70703125 C-0.69076172 122.40892578 -0.69076172 122.40892578 0.625 123.125 C1.33914063 123.51945313 2.05328125 123.91390625 2.7890625 124.3203125 C8.60999409 126.10978617 13.5643017 122.90303045 18.6015625 120.24609375 C19.97441406 119.50552734 19.97441406 119.50552734 21.375 118.75 C22.2825 118.27175781 23.19 117.79351562 24.125 117.30078125 C28.98688289 114.71571672 33.68944899 112.01822326 38.25732422 108.94042969 C41.25074911 107.32503705 43.71735766 107.4949781 47 108 C49.89854954 109.44927477 50.74959072 110.36562982 51.9375 113.375 C52.01943046 116.81607926 50.9554124 118.19675821 49 121 C42.11270688 127.03644082 33.55554088 131.20363675 25.5 135.4375 C24.32938013 136.07999259 23.15880703 136.72257039 21.98828125 137.36523438 C15.27897029 140.89425613 9.63775655 143.61402549 2 142 C-1.36236804 140.87909458 -4.38942473 139.37657245 -7.5 137.6875 C-8.35658203 137.23963135 -9.21316406 136.7917627 -10.09570312 136.33032227 C-28.6423294 126.48894193 -45.2286825 114.83448904 -61 101 C-61.98419922 100.14535156 -61.98419922 100.14535156 -62.98828125 99.2734375 C-77.30528057 85.94735221 -87.80575568 66.87840332 -89.27734375 47.3125 C-89.6678473 32.06724144 -85.89116373 19.03140722 -76.75 6.6875 C-55.58808196 -13.99346535 -24.74567142 -16.04570071 0 0 Z " fill="#010000" transform="translate(367,10)"/>
<path d="M0 0 C9.81474557 4.93357949 16.22995404 12.24203067 19.67749023 22.65405273 C21.88856091 34.51531036 20.15254471 45.1514781 13.40795898 55.14624023 C8.928568 60.76253248 2.84569759 64.55499054 -3.90454102 66.89624023 C-4.89454102 66.89624023 -5.88454102 66.89624023 -6.90454102 66.89624023 C-6.90454102 71.18624023 -6.90454102 75.47624023 -6.90454102 79.89624023 C0.37332675 79.85203263 7.65033157 79.78213804 14.92773438 79.6887207 C17.40194826 79.66054391 19.87625161 79.63931308 22.35058594 79.62524414 C25.91314386 79.60377001 29.47462982 79.55709349 33.03686523 79.50561523 C34.68882652 79.50377228 34.68882652 79.50377228 36.37416077 79.50189209 C42.81041072 79.37992393 46.88956796 78.78979186 52.09545898 74.89624023 C54.92103797 71.3450916 56.20780211 68.23421287 56.59545898 63.70874023 C57.09545898 59.89624023 57.09545898 59.89624023 58.78295898 57.39624023 C61.88021529 55.38720912 63.46680239 55.22975229 67.09545898 55.89624023 C69.97045898 57.89624023 69.97045898 57.89624023 72.09545898 60.89624023 C73.50438963 68.92714489 69.87948097 76.17474841 65.84936523 83.00952148 C61.14479327 89.30555102 53.37740879 92.46892363 46.09545898 94.89624023 C44.44789294 94.99831702 42.79656511 95.04410696 41.14588928 95.05686951 C39.61330475 95.07193794 39.61330475 95.07193794 38.04975891 95.08731079 C36.92925644 95.09314178 35.80875397 95.09897278 34.65429688 95.10498047 C33.47344513 95.11476425 32.29259338 95.12454803 31.07595825 95.1346283 C27.15669878 95.16461019 23.23744115 95.18628884 19.31811523 95.20483398 C18.64987378 95.20813131 17.98163232 95.21142863 17.29314113 95.21482587 C10.98184196 95.24562365 4.67053783 95.27231334 -1.64081478 95.28924465 C-9.69146319 95.31109951 -17.74144029 95.35295391 -25.79182047 95.42268223 C-31.46335507 95.47012059 -37.13470995 95.49420502 -42.8064366 95.50144154 C-46.18740841 95.50637117 -49.56762352 95.52118868 -52.94837761 95.56118584 C-56.73238473 95.60026227 -60.51466577 95.60111215 -64.29882812 95.59326172 C-65.95225471 95.62326263 -65.95225471 95.62326263 -67.63908386 95.65386963 C-77.06393955 95.56662259 -84.72035417 92.47023317 -91.90454102 86.33374023 C-92.56454102 85.52936523 -93.22454102 84.72499023 -93.90454102 83.89624023 C-94.95641602 82.75155273 -94.95641602 82.75155273 -96.02954102 81.58374023 C-100.57576807 75.06748145 -101.25143929 69.30107023 -101.40063477 61.53295898 C-100.90454102 58.89624023 -100.90454102 58.89624023 -99.06469727 57.06811523 C-96.10405042 55.46197771 -94.2246858 55.41205245 -90.90454102 55.89624023 C-88.28794649 57.56795341 -87.15893422 58.93863151 -86.35766602 61.95483398 C-86.05165659 63.51917526 -85.74967092 65.08430824 -85.45141602 66.65014648 C-84.2370934 71.63754293 -81.19459164 75.31412926 -76.91278076 78.06018066 C-72.45483312 79.91608945 -67.47846335 79.50043909 -62.72485352 79.50561523 C-61.55695282 79.52215149 -60.38905212 79.53868774 -59.1857605 79.5557251 C-55.46696707 79.60418877 -51.74858259 79.62557355 -48.02954102 79.64624023 C-45.50347879 79.6744011 -42.97743561 79.70432868 -40.45141602 79.73608398 C-34.269158 79.80994807 -28.0871268 79.85953331 -21.90454102 79.89624023 C-21.90454102 75.60624023 -21.90454102 71.31624023 -21.90454102 66.89624023 C-22.83266602 66.87561523 -23.76079102 66.85499023 -24.71704102 66.83374023 C-31.98052775 65.77079096 -38.83212811 60.71540813 -43.34204102 55.08374023 C-44.23954599 53.71537033 -45.09460108 52.31819266 -45.90454102 50.89624023 C-46.31575195 50.19241211 -46.72696289 49.48858398 -47.15063477 48.76342773 C-51.35211056 40.1860204 -51.73334124 29.31184865 -48.69360352 20.31030273 C-45.48900222 13.72216301 -41.8243415 7.82278904 -35.59204102 3.77124023 C-34.8740332 3.29428711 -34.15602539 2.81733398 -33.41625977 2.32592773 C-23.21692806 -3.47960167 -10.96388015 -4.78817799 0 0 Z " fill="#020202" transform="translate(155.904541015625,213.103759765625)"/>
<path d="M0 0 C7.63885937 5.46413402 14.24820982 12.48306297 16 22 C16.940074 32.56690779 16.47523039 41.08828211 10 50 C5.72729146 54.69921777 1.01699228 58.76111915 -5 61 C-6.32 61 -7.64 61 -9 61 C-9 64.63 -9 68.26 -9 72 C-2.27344606 71.95581152 4.45217247 71.88593798 11.17822266 71.79248047 C13.46525621 71.76429348 15.75238677 71.74306769 18.03955078 71.72900391 C21.33155906 71.70754362 24.62240378 71.66087529 27.9140625 71.609375 C29.44252304 71.60753204 29.44252304 71.60753204 31.00186157 71.60565186 C36.94309055 71.48368658 40.51291396 71.02740679 45 67 C46.87335011 63.45401586 47.96778663 60.12080013 49 56.25 C50.44594595 51.55067568 50.44594595 51.55067568 53 50 C57.00106924 49.30416187 58.51896425 49.66536643 61.875 52 C64.08115158 55.11456693 64.68666028 56.95252351 64.4140625 60.76171875 C62.92350619 68.81915994 59.26893685 75.67731777 53 81 C47.42455063 84.40627758 41.94317575 87.10969584 35.34068298 87.15390015 C33.90473282 87.16680084 33.90473282 87.16680084 32.43977356 87.17996216 C31.39093491 87.18422211 30.34209625 87.18848206 29.26147461 87.19287109 C28.15543884 87.20104858 27.04940308 87.20922607 25.90985107 87.21765137 C22.24068748 87.24251112 18.57156266 87.25902523 14.90234375 87.2734375 C13.64883181 87.27876118 12.39531986 87.28408485 11.10382271 87.28956985 C5.83232805 87.31080288 0.56083919 87.329931 -4.71068668 87.34119225 C-12.24677916 87.35740017 -19.78235351 87.39049956 -27.31825072 87.44759309 C-33.26785546 87.49111815 -39.21734607 87.50695326 -45.16711235 87.51332474 C-47.69040039 87.52003006 -50.21368111 87.53523319 -52.73686409 87.55921555 C-56.27687667 87.59093599 -59.81559471 87.59089233 -63.35571289 87.58349609 C-64.39038193 87.59990143 -65.42505096 87.61630676 -66.49107361 87.63320923 C-74.97053293 87.56101535 -80.64562598 84.67200224 -87.75 80.3125 C-94.52257962 73.35179317 -97.40415257 65.90449355 -97.27734375 56.3515625 C-97 54 -97 54 -95.375 51.375 C-92.27095134 49.57791919 -90.53343747 49.41109375 -87 50 C-83.02688886 52.64874076 -82.43641085 55.63909872 -81.48046875 60.04296875 C-80.34563557 64.66533803 -77.93468056 67.58889948 -73.9586792 70.14855957 C-69.84004783 71.93893406 -65.33395676 71.60404567 -60.9140625 71.609375 C-59.32868179 71.63417938 -59.32868179 71.63417938 -57.71127319 71.65948486 C-54.34912268 71.70791032 -50.98742435 71.72932443 -47.625 71.75 C-45.33982107 71.77816413 -43.05466315 71.80809217 -40.76953125 71.83984375 C-35.17972472 71.91366836 -29.59016842 71.96327673 -24 72 C-24 68.7 -24 65.4 -24 62 C-25.32 61.62875 -26.64 61.2575 -28 60.875 C-37.05545815 57.80438939 -42.43085055 52.27001817 -47 44 C-47.34160156 43.38511719 -47.68320312 42.77023437 -48.03515625 42.13671875 C-51.57892527 34.43932279 -51.2668248 24.56987644 -48.5 16.6875 C-44.15797348 7.39189394 -36.64633032 0.57306632 -27.14453125 -3.10546875 C-18.01556875 -5.70240342 -8.28495689 -4.5659318 0 0 Z " fill="#020201" transform="translate(398,273)"/>
<path d="M0 0 C4.82127953 2.82973569 8.16828954 5.77090987 11.25 10.4375 C10.0725966 13.96971019 9.16642487 14.42037321 6.1875 16.5 C-5.39623215 25.28892694 -12.59583389 38.35371569 -15.75 52.4375 C-16.14168586 56.60018895 -16.14445981 60.73141506 -16.12109375 64.91015625 C-16.13846806 67.29752753 -16.15605252 69.6848973 -16.17382812 72.07226562 C-16.1839054 75.79372907 -16.1874931 79.51509572 -16.18579102 83.23657227 C-16.1893718 86.85722054 -16.21674282 90.47713865 -16.24609375 94.09765625 C-16.23791122 95.20101822 -16.2297287 96.30438019 -16.22129822 97.44117737 C-16.31947535 107.69529334 -19.83986188 114.58818052 -25.625 122.8125 C-29.74923436 128.82212041 -33.42738256 134.94083744 -36.75 141.4375 C-42.20724745 141.21011469 -45.41188694 139.70697229 -49.85546875 136.59375 C-55.55696916 130.10461963 -56.28547254 122.95513431 -56.25 114.625 C-55.98317994 107.84428101 -55.98317994 107.84428101 -58.59375 101.86328125 C-60.78090299 100.28304541 -60.78090299 100.28304541 -63.75 99.4375 C-63.75 93.8275 -63.75 88.2175 -63.75 82.4375 C-61.77 81.4475 -59.79 80.4575 -57.75 79.4375 C-56.61370496 77.16490993 -56.61441376 75.88622702 -56.59228516 73.36181641 C-56.58202301 72.51978668 -56.57176086 71.67775696 -56.56118774 70.81021118 C-56.55388641 69.89573212 -56.54658508 68.98125305 -56.5390625 68.0390625 C-56.51095916 66.09504417 -56.48229454 64.15103388 -56.453125 62.20703125 C-56.41213126 59.14860562 -56.37524207 56.09032461 -56.34863281 53.03173828 C-56.19217492 36.47687506 -55.92053701 21.12712983 -44.1875 8.25 C-32.82982199 -2.58747901 -14.46603588 -6.8417981 0 0 Z " fill="#613D30" transform="translate(70.75,116.5625)"/>
<path d="M0 0 C10.71976126 6.11539572 18.52688732 15.80288907 21.9375 27.67578125 C22.35287505 30.81774705 22.38836067 33.91941559 22.38916016 37.0859375 C22.40084229 37.991091 22.41252441 38.89624451 22.42456055 39.8288269 C22.45795174 42.79875483 22.46886135 45.76818256 22.4765625 48.73828125 C22.48875386 50.81518727 22.50124022 52.89209158 22.51400757 54.96899414 C22.53643071 59.31302836 22.54603243 63.65688775 22.54833984 68.00097656 C22.5536304 73.55626639 22.60503172 79.11009683 22.66785622 84.66499329 C22.70878623 88.9511077 22.71798249 93.23687055 22.71845627 97.52316284 C22.72382793 99.57085372 22.74063789 101.61854891 22.76930618 103.66604614 C23.00043575 121.6678994 23.00043575 121.6678994 18.49975586 126.80883789 C17.32900397 127.78483261 16.14376381 128.74403381 14.9375 129.67578125 C13.34301916 132.29603313 11.96532115 134.93346256 10.58984375 137.671875 C8.9375 139.67578125 8.9375 139.67578125 5.75390625 140.4609375 C4.82449219 140.53183594 3.89507812 140.60273438 2.9375 140.67578125 C2.46441406 139.74378906 1.99132812 138.81179688 1.50390625 137.8515625 C-2.56406341 129.96740032 -6.94603416 122.64710903 -12.1796875 115.48046875 C-15.05024485 111.20441029 -16.31039409 107.72488924 -16.31787109 102.57275391 C-16.32483002 101.58046783 -16.33178894 100.58818176 -16.33895874 99.56582642 C-16.33796173 98.50125214 -16.33696472 97.43667786 -16.3359375 96.33984375 C-16.35624811 94.05468279 -16.37709926 91.76952659 -16.3984375 89.484375 C-16.42089665 85.90604653 -16.43745524 82.32790709 -16.44335938 78.74951172 C-16.51009666 54.72742447 -19.3369891 36.39668333 -36.31640625 18.234375 C-39.11463165 15.62720909 -41.8296922 13.69331916 -45.0625 11.67578125 C-43.74354254 7.61422971 -42.27485154 5.61383629 -38.875 3.05078125 C-38.13894531 2.48101562 -37.40289062 1.91125 -36.64453125 1.32421875 C-25.55416364 -5.75616723 -11.80611733 -5.23896457 0 0 Z " fill="#5E3B2E" transform="translate(245.0625,117.32421875)"/>
<path d="M0 0 C27.53351014 -0.83678698 27.53351014 -0.83678698 38 4 C38.80953125 4.36222656 39.6190625 4.72445312 40.453125 5.09765625 C52.45687646 11.11994653 60.93272739 21.1437581 65.18359375 33.84375 C67.51200364 41.69482054 67.45043133 49.23001222 67.25 57.3125 C67.22987061 58.74671938 67.2116314 60.18096658 67.1953125 61.61523438 C67.15190341 65.07741564 67.08324714 68.53851978 67 72 C46.4288479 70.59550444 25.50827755 67.49053065 10.625 51.6875 C1.30212292 40.4924058 -1.18766172 28.02626664 -1.125 13.8125 C-1.12886719 12.92369141 -1.13273438 12.03488281 -1.13671875 11.11914062 C-1.13542969 10.26126953 -1.13414062 9.40339844 -1.1328125 8.51953125 C-1.13112061 7.36094604 -1.13112061 7.36094604 -1.12939453 6.17895508 C-1.00013658 4.00230002 -0.59889703 2.09197645 0 0 Z " fill="#BD5F23" transform="translate(147,133)"/>
<path d="M0 0 C3.64576392 -0.05878077 7.29140352 -0.0938558 10.9375 -0.125 C12.46987305 -0.15013672 12.46987305 -0.15013672 14.03320312 -0.17578125 C27.79894096 -0.26374124 38.76484889 3.19613032 48.9609375 12.76171875 C52.33227887 16.46244404 54.8394246 20.49552765 57 25 C57.54527344 26.093125 58.09054687 27.18625 58.65234375 28.3125 C61.04145488 34.85565121 60.31135762 42.13408124 60.1875 49 C60.17242741 50.45701743 60.15874355 51.91404993 60.14648438 53.37109375 C60.11367903 56.91437925 60.06203907 60.45709171 60 64 C41.20248789 63.38103002 24.46097551 59.99579375 10.296875 46.62109375 C1.23295981 36.27774836 -1.37526789 24.89402052 -1.1875 11.5625 C-1.18685547 10.66595703 -1.18621094 9.76941406 -1.18554688 8.84570312 C-1.14103084 2.28206169 -1.14103084 2.28206169 0 0 Z " fill="#FCC200" transform="translate(387,200)"/>
<path d="M0 0 C0.09973738 5.49514624 0.1718742 10.98975226 0.21972656 16.4855957 C0.23969895 18.35059807 0.26688668 20.21553898 0.30175781 22.08032227 C0.55941554 36.22497361 -0.42480764 46.81605329 -8.9375 58.5625 C-9.82670968 59.85025369 -10.71214751 61.14062025 -11.59375 62.43359375 C-12.22023438 63.35180908 -12.22023438 63.35180908 -12.859375 64.28857422 C-21.48216726 77.22645388 -24.30806702 93.2524444 -21.54443359 108.51611328 C-19.81744536 116.42138324 -17.72739203 123.79662361 -14 131 C-14 131.66 -14 132.32 -14 133 C-19.4512364 133.86072154 -22.92945155 131.74528042 -27.53515625 129.19140625 C-32.34327769 124.91667388 -34.93284796 120.39812857 -35.46476746 113.90242004 C-35.71017835 108.76144971 -35.66939942 103.62176043 -35.62890625 98.4765625 C-35.62973621 96.56521469 -35.63220036 94.65386696 -35.63621521 92.74252319 C-35.63906528 88.74642318 -35.62445229 84.75088608 -35.59692383 80.75488281 C-35.56288903 75.65870489 -35.56885154 70.56353576 -35.5875864 65.46730995 C-35.59820924 61.52246857 -35.58917005 57.57785759 -35.57420158 53.63303757 C-35.56905488 51.75536155 -35.56945843 49.8776611 -35.57574654 47.99998856 C-35.60458727 34.21202743 -34.56872247 21.83662773 -25 11 C-17.67066136 4.40936635 -10.00234328 0 0 0 Z " fill="#F9A700" transform="translate(300,240)"/>
<path d="M0 0 C1.58172242 0.29286254 3.1622208 0.59234011 4.7421875 0.89453125 C5.62245605 1.06057861 6.50272461 1.22662598 7.40966797 1.39770508 C16.80670035 3.5826701 24.20705181 9.82225001 29.375 17.8125 C35.61340837 27.9368443 34.32668062 40.86745319 34.3359375 52.2890625 C34.34237489 54.1613271 34.34910393 56.03359071 34.35610962 57.90585327 C34.36803252 61.81421238 34.37179524 65.72248339 34.37060547 69.63085938 C34.37040172 74.62520587 34.39778372 79.61898694 34.43214989 84.61319923 C34.45443375 88.47379124 34.45844267 92.33424697 34.45738602 96.1948967 C34.45973664 98.03600399 34.46852968 99.87711535 34.48405075 101.71815872 C34.50375625 104.29509084 34.49785703 106.87080002 34.48583984 109.44775391 C34.49707886 110.19809402 34.50831787 110.94843414 34.51989746 111.72151184 C34.44872571 117.75996056 32.74314895 123.02256243 28.58807945 127.53251076 C23.61626088 131.90764372 19.54196149 133.30427728 13 133 C13.27714844 132.34257812 13.55429687 131.68515625 13.83984375 131.0078125 C15.25314531 127.34369735 16.41064064 123.62794237 17.5625 119.875 C19.94444444 112.16666667 19.94444444 112.16666667 21 109 C22.73346412 90.17099317 19.14493006 74.81248875 9 59 C8.33871094 57.95199219 7.67742187 56.90398437 6.99609375 55.82421875 C5.82411916 53.97695192 4.64206596 52.1359986 3.4453125 50.3046875 C1.1029533 46.56957418 -0.25274057 43.97685894 -0.22705078 39.50683594 C-0.22689972 38.62622498 -0.22674866 37.74561401 -0.22659302 36.83831787 C-0.21627045 35.89651672 -0.20594788 34.95471558 -0.1953125 33.984375 C-0.1924826 33.01340881 -0.18965271 32.04244263 -0.18673706 31.04205322 C-0.17555292 27.94457615 -0.15045142 24.8473895 -0.125 21.75 C-0.11496792 19.64844168 -0.10584247 17.54687882 -0.09765625 15.4453125 C-0.07561934 10.29676331 -0.04110145 5.14843087 0 0 Z " fill="#FC9600" transform="translate(463,240)"/>
<path d="M0 0 C12.73209749 -0.62616873 23.78687352 0.29178966 33.9609375 8.875 C42.92803366 18.22001975 45.44286037 27.73693835 45.43603516 40.24755859 C45.27213045 47.95388159 43.59050648 54.1436605 40 61 C39.5771875 61.84304687 39.154375 62.68609375 38.71875 63.5546875 C35.14037643 70.06649521 30.35379011 75.54874924 25.48828125 81.1171875 C21.5086898 85.29341981 21.5086898 85.29341981 19.75 90.5 C19.96681685 93.27753176 19.96681685 93.27753176 21 97 C15.06 101.455 15.06 101.455 9 106 C7.68 105.34 6.36 104.68 5 104 C-2.02955817 102.91240798 -6.54308971 106.15461631 -12.3125 109.6875 C-31.31313731 121.0602451 -31.31313731 121.0602451 -36.5 120.875 C-39 120 -39 120 -41 119 C-41 118.34 -41 117.68 -41 117 C-38.3603532 115.32272443 -35.709277 113.74501899 -33 112.1875 C-9.41533285 98.17928293 13.6091697 78.13982331 20.8125 50.6875 C24.03745356 35.17086631 21.62670445 22.20208274 13 9 C9.8917024 5.03061996 7.49395544 2.40744239 2.5625 1.0625 C1.2940625 1.0315625 1.2940625 1.0315625 0 1 C0 0.67 0 0.34 0 0 Z " fill="#E61E62" transform="translate(409,15)"/>
<path d="M0 0 C7.8316181 -0.2700558 15.27279225 0.76892281 23 2 C23.20753906 2.94359375 23.41507812 3.8871875 23.62890625 4.859375 C26.26813454 16.12588504 30.93080309 24.76292277 37.6875 34.1875 C44.2386801 43.36796539 47.40065507 53.11192416 47.25 64.375 C47.24250732 65.12031982 47.23501465 65.86563965 47.22729492 66.63354492 C46.95445044 80.65226368 42.36837862 92.73661472 34 104 C33.29875 104.99 32.5975 105.98 31.875 107 C24.78695267 115.12974119 15.18816041 120.76903246 5 124 C4.25683533 124.2476561 3.51367065 124.49531219 2.74798584 124.75047302 C-7.12080288 127.65699679 -16.80094792 127.38141545 -26.984375 127.29296875 C-28.89536198 127.28736247 -30.80635333 127.28309726 -32.71734619 127.28010559 C-37.70845782 127.26873797 -42.69930092 127.2393418 -47.69030762 127.20599365 C-52.79870981 127.17511701 -57.90715607 127.16156292 -63.015625 127.14648438 C-73.01053362 127.11446318 -83.00524434 127.06336647 -93 127 C-93 126.67 -93 126.34 -93 126 C-91.99712448 126.0030162 -90.99424896 126.00603241 -89.96098328 126.00914001 C-80.4722451 126.03309843 -70.98416894 126.02005466 -61.49551678 125.97153378 C-56.61813446 125.94776183 -51.74143286 125.93666116 -46.86401367 125.95532227 C-42.14974538 125.97287957 -37.43669496 125.95610241 -32.72257423 125.91632271 C-30.93143623 125.90708642 -29.14019151 125.90985984 -27.3490963 125.92530632 C-13.34193431 126.03429336 -5.77602229 123.39338241 4.75 113.75 C12.14814192 105.95552904 16.87066961 96.83808209 21 87 C20.34 86.67 19.68 86.34 19 86 C19.58007812 85.68289063 20.16015625 85.36578125 20.7578125 85.0390625 C28.41247275 80.46647667 31.84083355 74.90719647 35.375 66.875 C36.22005831 62.98773179 36.38612322 59.98993996 36 56 C34.54002013 53.37283423 34.54002013 53.37283423 32 52 C27.89222251 51.49700684 26.49124017 51.67250655 23 54 C22.72027344 52.97261719 22.44054687 51.94523437 22.15234375 50.88671875 C19.2830605 40.79905143 15.42833419 32.9601479 9.13671875 24.4921875 C3.86722216 17.29317502 -1.00319647 9.27956732 0 0 Z " fill="#D2A48C" transform="translate(191,218)"/>
<path d="M0 0 C1.45257454 -0.02398109 1.45257454 -0.02398109 2.93449402 -0.04844666 C4.48926201 -0.05649071 4.48926201 -0.05649071 6.07543945 -0.06469727 C7.15445023 -0.07372574 8.233461 -0.08275421 9.34516907 -0.09205627 C11.62721997 -0.10654859 13.90931233 -0.11544297 16.19140625 -0.11914062 C19.65933554 -0.131003 23.12546532 -0.18017267 26.59301758 -0.23071289 C28.81631624 -0.24018184 31.03962577 -0.24741461 33.26293945 -0.25219727 C34.80252571 -0.28149574 34.80252571 -0.28149574 36.37321472 -0.31138611 C44.28000376 -0.26255654 50.95702128 1.62361873 56.91386414 7.04811096 C61.26327866 11.70680209 64.06424677 16.99286077 64.4387207 23.43139648 C63.95133091 27.74827754 63.07833971 29.31978098 60.0012207 32.30639648 C57.23670038 33.68865665 54.9550844 33.40165035 51.8762207 33.36889648 C50.78051758 33.35987305 49.68481445 33.35084961 48.5559082 33.34155273 C47.71286133 33.32995117 46.86981445 33.31834961 46.0012207 33.30639648 C45.94514648 31.95094727 45.94514648 31.95094727 45.88793945 30.56811523 C45.82219727 29.38862305 45.75645508 28.20913086 45.6887207 26.99389648 C45.63071289 25.82213867 45.57270508 24.65038086 45.51293945 23.44311523 C45.24265414 20.36033632 45.24265414 20.36033632 43.67700195 18.41186523 C40.82806662 16.53249763 38.29305822 16.95369961 35.0012207 17.30639648 C33.19555186 18.34975703 33.19555186 18.34975703 32.0012207 20.30639648 C31.42029078 23.49885646 31.42029078 23.49885646 31.3137207 26.99389648 C31.2105957 29.07702148 31.1074707 31.16014648 31.0012207 33.30639648 C23.7412207 33.30639648 16.4812207 33.30639648 9.0012207 33.30639648 C8.70825195 28.37475586 8.70825195 28.37475586 8.4152832 23.44311523 C8.21508323 20.14939761 8.21508323 20.14939761 6.0012207 17.30639648 C0.88301967 16.64242387 0.88301967 16.64242387 -3.7097168 18.41186523 C-5.60675132 21.19993112 -5.52115968 23.65848027 -5.6862793 26.99389648 C-5.75202148 28.17338867 -5.81776367 29.35288086 -5.88549805 30.56811523 C-5.92288086 31.47174805 -5.96026367 32.37538086 -5.9987793 33.30639648 C-16.44007821 33.9058969 -16.44007821 33.9058969 -21.2487793 32.05639648 C-24.22397839 27.38108362 -23.82074315 22.66263634 -22.9987793 17.30639648 C-20.70760504 10.38032383 -16.23905437 5.91110083 -9.9987793 2.30639648 C-6.53746411 0.72953535 -3.79702734 0.04769846 0 0 Z " fill="#E3C7BA" transform="translate(56.998779296875,463.693603515625)"/>
<path d="M0 0 C0.96853409 -0.01606293 1.93706818 -0.03212585 2.93495178 -0.04867554 C7.37915228 -0.09335376 11.82320504 -0.13422288 16.26757812 -0.15722656 C18.6039428 -0.17374026 20.94025791 -0.20096899 23.27636719 -0.23925781 C26.65773543 -0.29435627 30.03791944 -0.31595541 33.41967773 -0.33056641 C34.96867516 -0.36457047 34.96867516 -0.36457047 36.54896545 -0.39926147 C44.48681227 -0.37642363 51.15994932 1.48730217 57.14064026 6.9347229 C61.49063155 11.59280104 64.29130897 16.87953169 64.66577148 23.31787109 C64.17838169 27.63475215 63.30539049 29.20625559 60.22827148 32.19287109 C57.46375116 33.57513126 55.18213518 33.28812496 52.10327148 33.25537109 C51.00756836 33.24634766 49.91186523 33.23732422 48.78295898 33.22802734 C47.93991211 33.21642578 47.09686523 33.20482422 46.22827148 33.19287109 C46.17219727 31.83742188 46.17219727 31.83742188 46.11499023 30.45458984 C46.04924805 29.27509766 45.98350586 28.09560547 45.91577148 26.88037109 C45.85776367 25.70861328 45.79975586 24.53685547 45.73999023 23.32958984 C45.46970493 20.24681093 45.46970493 20.24681093 43.90405273 18.29833984 C41.0551174 16.41897224 38.520109 16.84017422 35.22827148 17.19287109 C33.42260264 18.23623164 33.42260264 18.23623164 32.22827148 20.19287109 C31.64734156 23.38533107 31.64734156 23.38533107 31.54077148 26.88037109 C31.43764648 28.96349609 31.33452148 31.04662109 31.22827148 33.19287109 C23.96827148 33.19287109 16.70827148 33.19287109 9.22827148 33.19287109 C8.93530273 28.26123047 8.93530273 28.26123047 8.64233398 23.32958984 C8.44213401 20.03587222 8.44213401 20.03587222 6.22827148 17.19287109 C1.11007045 16.52889848 1.11007045 16.52889848 -3.48266602 18.29833984 C-5.37970054 21.08640573 -5.2941089 23.54495488 -5.45922852 26.88037109 C-5.5249707 28.05986328 -5.59071289 29.23935547 -5.65844727 30.45458984 C-5.69583008 31.35822266 -5.73321289 32.26185547 -5.77172852 33.19287109 C-16.4035075 33.95591743 -16.4035075 33.95591743 -21.02172852 31.38037109 C-23.66174092 26.57177706 -23.76244031 22.54845805 -22.77172852 17.19287109 C-19.85418347 9.5370574 -14.96809053 4.90756463 -7.77172852 1.19287109 C-4.89337407 0.23341961 -2.99566558 0.04524848 0 0 Z " fill="#E3C7BA" transform="translate(184.771728515625,463.80712890625)"/>
<path d="M0 0 C7.67846322 0.56565481 15.34343208 1.1876779 23 2 C23.07476562 2.58265625 23.14953125 3.1653125 23.2265625 3.765625 C25.00401603 14.84857055 30.71054023 23.9069248 36.84008789 33.10449219 C44.73893952 44.99015138 46.87628126 56.89182685 44.34765625 71.03515625 C41.21372757 86.08124847 33.74958969 97.95487347 21.18359375 107.03515625 C11.94867226 112.82696453 1.96236802 116.34735006 -9 116 C-6.40965243 113.30463834 -3.78580449 111.04811185 -0.75 108.875 C7.62445052 102.4288769 15.74806597 92.57223766 18 82 C17.34 81.67 16.68 81.34 16 81 C16.65226562 80.72027344 17.30453125 80.44054687 17.9765625 80.15234375 C26.20683699 76.37709985 30.70418605 72.37281492 34.375 64.0625 C36.05313496 59.43000141 36.67558765 55.89801044 36 51 C34.54002013 48.37283423 34.54002013 48.37283423 32 47 C28.41889189 46.47775507 26.70110743 46.55719531 23.625 48.5 C23.08875 48.995 22.5525 49.49 22 50 C21.58363281 48.845 21.16726563 47.69 20.73828125 46.5 C19.12463807 42.204514 17.24135779 38.1007584 15.1875 34 C14.8371167 33.29649414 14.4867334 32.59298828 14.12573242 31.86816406 C11.91337129 27.52513828 9.4595185 23.78057075 6.38671875 19.9921875 C2.20895693 13.99033248 -0.36894165 7.31372566 0 0 Z " fill="#D6A78E" transform="translate(425,277)"/>
<path d="M0 0 C2.62881398 2.91318088 4.2247903 6.51515562 6 10 C6.45761719 10.8765625 6.91523438 11.753125 7.38671875 12.65625 C10.75776006 19.54005809 12.57314509 26.4897299 14 34 C14.185625 34.94359375 14.37125 35.8871875 14.5625 36.859375 C17.09083476 55.00920664 13.20899127 72.36675452 6 89 C5.66355469 89.97066406 5.32710937 90.94132812 4.98046875 91.94140625 C2.51293905 94.5062744 1.59467995 94.35265057 -1.88671875 94.48828125 C-3.82091459 94.45504764 -5.75479669 94.39542126 -7.6875 94.3125 C-9.16959961 94.27866211 -9.16959961 94.27866211 -10.68164062 94.24414062 C-13.12261559 94.18517988 -15.56054868 94.10295048 -18 94 C-17.71104858 93.13640869 -17.71104858 93.13640869 -17.41625977 92.25537109 C-15.14281703 85.45132953 -15.14281703 85.45132953 -12.9375 78.625 C-12.61652344 77.62726563 -12.29554688 76.62953125 -11.96484375 75.6015625 C-9.58610483 66.72222127 -8.66390032 58.2449938 -8.75 49.0625 C-8.75749268 48.00562988 -8.76498535 46.94875977 -8.77270508 45.85986328 C-8.98254055 30.68371757 -12.75091541 17.81376595 -19 4 C-16.77332235 3.32506659 -14.54354023 2.66036956 -12.3125 2 C-10.45044922 1.443125 -10.45044922 1.443125 -8.55078125 0.875 C-2.91070624 -0.51485347 -2.91070624 -0.51485347 0 0 Z " fill="#883D13" transform="translate(206,355)"/>
<path d="M0 0 C0.99496994 -0.0066568 1.98993988 -0.0133136 3.01506042 -0.02017212 C5.11719926 -0.03028148 7.21937008 -0.03498967 9.3215332 -0.03466797 C12.52154047 -0.03903327 15.72015913 -0.07535011 18.91992188 -0.11328125 C20.96744323 -0.11915149 23.0149711 -0.1231195 25.0625 -0.125 C26.48632744 -0.14655655 26.48632744 -0.14655655 27.93891907 -0.16854858 C35.1673229 -0.11935852 40.4891473 1.49554606 45.97265625 6.30078125 C49.9531542 11.10975605 52.37954071 14.52851317 53.16796875 20.8359375 C52.73046875 24.3359375 52.73046875 24.3359375 50.91796875 27.2734375 C46.28363127 30.27212646 42.10230923 29.75928745 36.73046875 29.3359375 C36.67439453 28.08876953 36.67439453 28.08876953 36.6171875 26.81640625 C36.55144531 25.72972656 36.48570312 24.64304687 36.41796875 23.5234375 C36.35996094 22.44449219 36.30195313 21.36554688 36.2421875 20.25390625 C35.95361785 17.35650081 35.95361785 17.35650081 34.375 15.46484375 C31.84535211 13.72833962 29.71650732 14.08710095 26.73046875 14.3359375 C25.74046875 14.6659375 24.75046875 14.9959375 23.73046875 15.3359375 C23.40046875 19.9559375 23.07046875 24.5759375 22.73046875 29.3359375 C16.13046875 29.3359375 9.53046875 29.3359375 2.73046875 29.3359375 C2.56770833 26.30859375 2.40494792 23.28125 2.2421875 20.25390625 C1.95361785 17.35650081 1.95361785 17.35650081 0.375 15.46484375 C-2.15464789 13.72833962 -4.28349268 14.08710095 -7.26953125 14.3359375 C-8.25953125 14.6659375 -9.24953125 14.9959375 -10.26953125 15.3359375 C-10.59953125 19.9559375 -10.92953125 24.5759375 -11.26953125 29.3359375 C-21.3326575 29.94214992 -21.3326575 29.94214992 -25.45703125 27.2734375 C-27.78136246 23.50641795 -27.93655296 21.70863537 -27.26953125 17.3359375 C-24.97967257 10.12501605 -19.90186446 4.82607244 -13.28027344 1.26660156 C-8.8636512 -0.09864041 -4.59855104 0.01071375 0 0 Z " fill="#E0C5B8" transform="translate(309.26953125,467.6640625)"/>
<path d="M0 0 C0.99496994 -0.0066568 1.98993988 -0.0133136 3.01506042 -0.02017212 C5.11719926 -0.03028148 7.21937008 -0.03498967 9.3215332 -0.03466797 C12.52154047 -0.03903327 15.72015913 -0.07535011 18.91992188 -0.11328125 C20.96744323 -0.11915149 23.0149711 -0.1231195 25.0625 -0.125 C26.48632744 -0.14655655 26.48632744 -0.14655655 27.93891907 -0.16854858 C35.52780401 -0.1169054 40.67293911 1.76483303 46.48046875 6.6484375 C50.07995749 10.94782683 52.90349502 14.71620005 53.29296875 20.4609375 C52.73046875 24.3359375 52.73046875 24.3359375 50.85546875 27.3359375 C46.47855525 30.13716214 42.78848387 29.77789999 37.73046875 29.3359375 C37.7046875 28.58828125 37.67890625 27.840625 37.65234375 27.0703125 C37.38818523 21.0563034 37.38818523 21.0563034 35.04296875 15.6484375 C32.01489332 13.9298001 30.15969918 13.82520105 26.73046875 14.3359375 C24.9711999 15.4268539 24.9711999 15.4268539 23.73046875 17.3359375 C23.15099594 20.29837476 23.15099594 20.29837476 23.04296875 23.5234375 C22.93984375 25.4415625 22.83671875 27.3596875 22.73046875 29.3359375 C16.46046875 29.3359375 10.19046875 29.3359375 3.73046875 29.3359375 C3.60671875 26.7371875 3.60671875 26.7371875 3.48046875 24.0859375 C3.14844876 20.55197128 2.94808588 18.68251293 1.04296875 15.6484375 C-1.98510668 13.9298001 -3.84030082 13.82520105 -7.26953125 14.3359375 C-9.0288001 15.4268539 -9.0288001 15.4268539 -10.26953125 17.3359375 C-10.84900406 20.29837476 -10.84900406 20.29837476 -10.95703125 23.5234375 C-11.02277344 24.61011719 -11.08851563 25.69679688 -11.15625 26.81640625 C-11.19363281 27.64785156 -11.23101562 28.47929687 -11.26953125 29.3359375 C-13.01875265 29.41736677 -14.76907667 29.47532291 -16.51953125 29.5234375 C-17.4940625 29.55824219 -18.46859375 29.59304688 -19.47265625 29.62890625 C-22.74210544 29.28643601 -24.04207587 28.74512001 -26.26953125 26.3359375 C-27.52207976 20.98885112 -26.93213587 15.69715895 -24.14453125 10.9609375 C-17.63527872 1.98773063 -10.66373887 0.02484449 0 0 Z " fill="#E3C7BA" transform="translate(427.26953125,467.6640625)"/>
<path d="M0 0 C27.53351014 -0.83678698 27.53351014 -0.83678698 38 4 C38.80953125 4.36222656 39.6190625 4.72445312 40.453125 5.09765625 C52.45687646 11.11994653 60.93272739 21.1437581 65.18359375 33.84375 C67.51200364 41.69482054 67.45043133 49.23001222 67.25 57.3125 C67.22987061 58.74671938 67.2116314 60.18096658 67.1953125 61.61523438 C67.15190341 65.07741564 67.08324714 68.53851978 67 72 C53.42440205 71.04797836 53.42440205 71.04797836 46.6875 69.9375 C45.59824219 69.76089844 44.50898438 69.58429688 43.38671875 69.40234375 C42.59910156 69.26957031 41.81148437 69.13679688 41 69 C41.99 68.67 42.98 68.34 44 68 C43.79573347 35.22369891 43.79573347 35.22369891 27 8 C26.51015625 7.4328125 26.0203125 6.865625 25.515625 6.28125 C18.79708419 -0.25237684 8.76769752 1.01767681 0 1 C0 0.67 0 0.34 0 0 Z " fill="#9F4817" transform="translate(147,133)"/>
<path d="M0 0 C12.16680685 -0.44242934 22.29772602 2.83703755 31.75 10.6875 C36.21022853 14.87191935 39.36085333 19.49777906 42 25 C42.54527344 26.093125 43.09054687 27.18625 43.65234375 28.3125 C46.04145488 34.85565121 45.31135762 42.13408124 45.1875 49 C45.17242741 50.45701743 45.15874355 51.91404993 45.14648438 53.37109375 C45.11367903 56.91437925 45.06203907 60.45709171 45 64 C42.45749979 63.88525534 39.91652662 63.7585303 37.375 63.625 C36.30572266 63.57859375 36.30572266 63.57859375 35.21484375 63.53125 C34.51230469 63.49257813 33.80976563 63.45390625 33.0859375 63.4140625 C32.4470459 63.3826416 31.8081543 63.3512207 31.14990234 63.31884766 C28.30015592 62.89620754 25.70908203 61.96150483 23 61 C22.98541748 60.23445801 22.97083496 59.46891602 22.95581055 58.68017578 C22.88065298 55.16131431 22.78421764 51.6433323 22.6875 48.125 C22.66494141 46.92101562 22.64238281 45.71703125 22.61914062 44.4765625 C22.18622723 29.99364181 17.82697198 16.21512835 7 6 C4.72202298 4.23284207 2.38602724 2.62249852 0 1 C0 0.67 0 0.34 0 0 Z " fill="#FDA900" transform="translate(402,200)"/>
<path d="M0 0 C6.51650598 2.21095739 10.92272635 6.92368847 14 13 C14.94853265 19.67390987 14.83961131 26.44214768 11.34375 32.34765625 C8.26986857 36.12745813 4.58453834 38.47182055 0 40 C-5.75967158 40.46907873 -11.11444814 40.85706903 -16.4375 38.4375 C-22.74640258 32.43634876 -26.07309378 28.59593128 -26.3125 19.6875 C-26.22821585 13.34933164 -24.74529041 9.69637655 -20.24609375 5.27734375 C-13.69947522 -0.5039081 -8.70521909 -0.58388665 0 0 Z " fill="#5D3A2E" transform="translate(147,226)"/>
<path d="M0 0 C5.44835076 2.42717882 9.13343475 5.91140076 11.828125 11.30078125 C12.51724481 18.74553464 12.46208717 24.28915465 7.828125 30.30078125 C3.51844369 34.4970499 -0.61892789 36.01712046 -6.546875 36.67578125 C-11.83057454 36.12919164 -16.09604394 34.55600512 -19.75390625 30.58203125 C-24.02349224 24.77440996 -25.08460529 19.45403959 -24.171875 12.30078125 C-22.12231872 6.76506381 -18.46797234 2.98987658 -13.34375 0.1484375 C-8.7708615 -1.63630495 -4.63973683 -1.49372822 0 0 Z " fill="#5D3A2E" transform="translate(387.171875,284.69921875)"/>
<path d="M0 0 C2 0 2 0 3.515625 1.43359375 C13.53807028 13.0135812 19.72356958 23.69140071 19.390625 39.35546875 C19.38496521 40.38311844 19.37930542 41.41076813 19.37347412 42.46955872 C19.35131943 45.70937326 19.30116354 48.94802725 19.25 52.1875 C19.22990795 54.40167659 19.21166196 56.61587074 19.1953125 58.83007812 C19.15152382 64.22043922 19.08482597 69.61013666 19 75 C16.28075473 71.44693027 13.96485475 67.72093108 11.6875 63.875 C10.88935367 62.53513793 10.09117649 61.19529424 9.29296875 59.85546875 C8.90415527 59.2011084 8.5153418 58.54674805 8.11474609 57.87255859 C6.12193135 54.52501389 4.1055148 51.19164538 2.09375 47.85546875 C0.33913945 44.87889728 -0.12336608 43.17812942 -0.11352539 39.73388672 C-0.11344986 38.85312469 -0.11337433 37.97236267 -0.11329651 37.06491089 C-0.10813522 36.11278717 -0.10297394 35.16066345 -0.09765625 34.1796875 C-0.0962413 33.20589142 -0.09482635 32.23209534 -0.09336853 31.22879028 C-0.08775973 28.11082927 -0.07520573 24.9929394 -0.0625 21.875 C-0.05748613 19.76432395 -0.05292303 17.65364678 -0.04882812 15.54296875 C-0.03778745 10.36195479 -0.02104073 5.18098248 0 0 Z " fill="#FDA900" transform="translate(463,240)"/>
<path d="M0 0 C0.01458252 0.62044189 0.02916504 1.24088379 0.04418945 1.88012695 C0.11866588 4.69154633 0.21532564 7.50177749 0.3125 10.3125 C0.33505859 11.28896484 0.35761719 12.26542969 0.38085938 13.27148438 C0.4340332 14.67817383 0.4340332 14.67817383 0.48828125 16.11328125 C0.51446533 16.97735596 0.54064941 17.84143066 0.56762695 18.73168945 C1.08398579 21.44060528 1.84048951 22.33461758 4 24 C6.10332891 24.71447643 6.10332891 24.71447643 8 25 C8.12036664 30.77759884 7.8320582 36.27959989 7 42 C6.07767578 42.05994141 6.07767578 42.05994141 5.13671875 42.12109375 C2.49477094 42.46239801 0.41841336 42.86596603 -2 44 C-3.73050416 46.85670528 -4.35104159 49.74941366 -5 53 C-5.33 53.99 -5.66 54.98 -6 56 C-10.62 56 -15.24 56 -20 56 C-18.18707759 47.58286023 -18.18707759 47.58286023 -16.98632812 43.84179688 C-15.94881357 39.80062634 -15.65355554 36.02090894 -15.5859375 31.87890625 C-15.56657135 31.13414536 -15.5472052 30.38938446 -15.5272522 29.62205505 C-15.46799844 27.26898251 -15.42129086 24.91585957 -15.375 22.5625 C-15.33677015 20.95636017 -15.29771558 19.35023975 -15.2578125 17.74414062 C-15.1623425 13.82958675 -15.07811457 9.91493709 -15 6 C-14.39671875 5.73445313 -13.7934375 5.46890625 -13.171875 5.1953125 C-12.37265625 4.84210938 -11.5734375 4.48890625 -10.75 4.125 C-9.96109375 3.77695312 -9.1721875 3.42890625 -8.359375 3.0703125 C-6.82990954 2.37648214 -5.3172252 1.64387645 -3.828125 0.8671875 C-2 0 -2 0 0 0 Z " fill="#FB9600" transform="translate(454,397)"/>
<path d="M0 0 C7.56969836 -0.61045954 12.6727402 0.72802357 19 5 C23.83761418 9.27864616 27.3118692 14.55688385 28.31640625 21.04296875 C28.53215641 24.7524796 28.12921358 26.79756538 26.125 29.9375 C22.67602897 33.28503071 20.58585719 33.1126155 15.875 33.0625 C14.77929688 33.05347656 13.68359375 33.04445313 12.5546875 33.03515625 C11.71164063 33.02355469 10.86859375 33.01195312 10 33 C10.05800781 31.88882812 10.11601563 30.77765625 10.17578125 29.6328125 C10.50827759 20.44992438 10.15284922 13.91665016 5 6 C4.67773438 5.27425781 4.35546875 4.54851562 4.0234375 3.80078125 C3.06708247 1.65095178 3.06708247 1.65095178 0 1 C0 0.67 0 0.34 0 0 Z " fill="#D5A68D" transform="translate(93,464)"/>
<path d="M0 0 C7.13716743 -0.66084884 12.03282793 1.03188055 18 5 C22.83999981 9.2717818 26.31264331 14.56188211 27.31640625 21.04296875 C27.53215641 24.7524796 27.12921358 26.79756538 25.125 29.9375 C21.67602897 33.28503071 19.58585719 33.1126155 14.875 33.0625 C13.77929688 33.05347656 12.68359375 33.04445313 11.5546875 33.03515625 C10.71164063 33.02355469 9.86859375 33.01195312 9 33 C9.10699219 32.24976563 9.21398437 31.49953125 9.32421875 30.7265625 C10.8153289 17.99600921 7.2001395 10.37609144 0 0 Z " fill="#D5A68D" transform="translate(222,464)"/>
<path d="M0 0 C6.4044834 -0.10185277 12.80875607 -0.17165458 19.21386719 -0.21972656 C21.39037888 -0.23977764 23.56683714 -0.26702571 25.74316406 -0.30175781 C28.88099393 -0.35056212 32.01810835 -0.37303438 35.15625 -0.390625 C36.12115356 -0.41127014 37.08605713 -0.43191528 38.0802002 -0.45318604 C45.38616988 -0.45558437 50.69934615 1.10761518 56.2421875 5.96484375 C60.22268545 10.77381855 62.64907196 14.19257567 63.4375 20.5 C63 24 63 24 61.1875 26.9375 C56.55316252 29.93618896 52.37184048 29.42334995 47 29 C46.99613281 27.33324219 46.99613281 27.33324219 46.9921875 25.6328125 C46.95462144 24.13017018 46.91547318 22.62756683 46.875 21.125 C46.87757813 20.39796875 46.88015625 19.6709375 46.8828125 18.921875 C46.69296196 13.51113471 45.55054628 8.54913124 42.58154297 3.98095703 C36.39196753 -0.76863774 27.06111563 0.72630332 19.625 0.875 C17.72525963 0.87694281 15.82550898 0.87438716 13.92578125 0.8671875 C9.28211955 0.85937607 4.64281729 0.91316506 0 1 C0 0.67 0 0.34 0 0 Z " fill="#CCA18A" transform="translate(299,468)"/>
<path d="M0 0 C6.4044834 -0.10185277 12.80875607 -0.17165458 19.21386719 -0.21972656 C21.39037888 -0.23977764 23.56683714 -0.26702571 25.74316406 -0.30175781 C28.88099393 -0.35056212 32.01810835 -0.37303438 35.15625 -0.390625 C36.12115356 -0.41127014 37.08605713 -0.43191528 38.0802002 -0.45318604 C45.75056547 -0.45570399 50.8807581 1.37700113 56.75 6.3125 C60.34948874 10.61188933 63.17302627 14.38026255 63.5625 20.125 C63 24 63 24 61.125 27 C56.7480865 29.80122464 53.05801512 29.44196249 48 29 C47.97421875 28.01 47.9484375 27.02 47.921875 26 C47.63492568 18.49465996 47.1508963 12.47051482 43 6 C42.47152466 4.92637207 42.47152466 4.92637207 41.93237305 3.83105469 C38.76498726 0.82974156 35.16153577 1.39663548 30.95703125 1.390625 C29.63163582 1.36582062 29.63163582 1.36582062 28.27946472 1.34051514 C25.45707322 1.29192715 22.63522088 1.27064059 19.8125 1.25 C17.89906126 1.2218493 15.98564775 1.19192314 14.07226562 1.16015625 C9.38155479 1.08616545 4.69114517 1.03665698 0 1 C0 0.67 0 0.34 0 0 Z " fill="#CFA38C" transform="translate(417,468)"/>
</svg>
